<mxfile host="app.diagrams.net" agent="Mozilla/5.0 (Macintosh; Intel Mac OS X 10_15_7) AppleWebKit/537.36 (KHTML, like Gecko) Chrome/131.0.0.0 Safari/537.36" version="26.0.5">
  <diagram name="Page-1" id="cmiTBkzmCyTZl5MXcI-u">
    <mxGraphModel dx="2826" dy="1047" grid="1" gridSize="10" guides="1" tooltips="1" connect="1" arrows="1" fold="1" page="1" pageScale="1" pageWidth="850" pageHeight="1100" math="0" shadow="0">
      <root>
        <mxCell id="0" />
        <mxCell id="1" parent="0" />
        <mxCell id="N5ZQxtcFyUModlqFyTWq-1" value="+-------------------+                     +---------------------+&#xa;|      Client       |                     |      Shape          |&#xa;+-------------------+                     +---------------------+&#xa;| - Main()          |-------------------&gt; | - Draw()            |&#xa;| Directly calls    |                     | - ExportToJson()     |&#xa;| methods on shapes |                     +---------------------+&#xa;+-------------------+                           ^&#xa;                  +-----------------------------+-----------------------------+&#xa;                  |                                                           |&#xa;      +----------------------+                                   +-----------------------+&#xa;      |       Circle         |                                   |     Rectangle         |&#xa;      +----------------------+                                   +-----------------------+&#xa;      | - Draw()             |                                   | - Draw()              |&#xa;      | - ExportToJson()     |                                   | - ExportToJson()      |&#xa;      +----------------------+                                   +-----------------------+" style="text;whiteSpace=wrap;" vertex="1" parent="1">
          <mxGeometry x="240" y="110" width="420" height="240" as="geometry" />
        </mxCell>
        <mxCell id="N5ZQxtcFyUModlqFyTWq-2" value="IVisitor" style="swimlane;fontStyle=0;childLayout=stackLayout;horizontal=1;startSize=26;fillColor=none;horizontalStack=0;resizeParent=1;resizeParentMax=0;resizeLast=0;collapsible=1;marginBottom=0;whiteSpace=wrap;html=1;" vertex="1" parent="1">
          <mxGeometry x="600" y="420" width="140" height="78" as="geometry" />
        </mxCell>
        <mxCell id="N5ZQxtcFyUModlqFyTWq-3" value="Visit(Circle)" style="text;strokeColor=none;fillColor=none;align=left;verticalAlign=top;spacingLeft=4;spacingRight=4;overflow=hidden;rotatable=0;points=[[0,0.5],[1,0.5]];portConstraint=eastwest;whiteSpace=wrap;html=1;" vertex="1" parent="N5ZQxtcFyUModlqFyTWq-2">
          <mxGeometry y="26" width="140" height="26" as="geometry" />
        </mxCell>
        <mxCell id="N5ZQxtcFyUModlqFyTWq-4" value="Visit(Rectangle)" style="text;strokeColor=none;fillColor=none;align=left;verticalAlign=top;spacingLeft=4;spacingRight=4;overflow=hidden;rotatable=0;points=[[0,0.5],[1,0.5]];portConstraint=eastwest;whiteSpace=wrap;html=1;" vertex="1" parent="N5ZQxtcFyUModlqFyTWq-2">
          <mxGeometry y="52" width="140" height="26" as="geometry" />
        </mxCell>
        <mxCell id="N5ZQxtcFyUModlqFyTWq-6" value="ExportVisitor" style="swimlane;fontStyle=0;childLayout=stackLayout;horizontal=1;startSize=26;fillColor=none;horizontalStack=0;resizeParent=1;resizeParentMax=0;resizeLast=0;collapsible=1;marginBottom=0;whiteSpace=wrap;html=1;" vertex="1" parent="1">
          <mxGeometry x="720" y="660" width="140" height="78" as="geometry" />
        </mxCell>
        <mxCell id="N5ZQxtcFyUModlqFyTWq-7" value="Visit(Circle)" style="text;strokeColor=none;fillColor=none;align=left;verticalAlign=top;spacingLeft=4;spacingRight=4;overflow=hidden;rotatable=0;points=[[0,0.5],[1,0.5]];portConstraint=eastwest;whiteSpace=wrap;html=1;" vertex="1" parent="N5ZQxtcFyUModlqFyTWq-6">
          <mxGeometry y="26" width="140" height="26" as="geometry" />
        </mxCell>
        <mxCell id="N5ZQxtcFyUModlqFyTWq-8" value="Visit(Rectangle)" style="text;strokeColor=none;fillColor=none;align=left;verticalAlign=top;spacingLeft=4;spacingRight=4;overflow=hidden;rotatable=0;points=[[0,0.5],[1,0.5]];portConstraint=eastwest;whiteSpace=wrap;html=1;" vertex="1" parent="N5ZQxtcFyUModlqFyTWq-6">
          <mxGeometry y="52" width="140" height="26" as="geometry" />
        </mxCell>
        <mxCell id="N5ZQxtcFyUModlqFyTWq-12" style="edgeStyle=orthogonalEdgeStyle;rounded=0;orthogonalLoop=1;jettySize=auto;html=1;" edge="1" parent="1" source="N5ZQxtcFyUModlqFyTWq-9">
          <mxGeometry relative="1" as="geometry">
            <mxPoint x="650" y="500" as="targetPoint" />
          </mxGeometry>
        </mxCell>
        <mxCell id="N5ZQxtcFyUModlqFyTWq-9" value="DrawVisitor" style="swimlane;fontStyle=0;childLayout=stackLayout;horizontal=1;startSize=26;fillColor=none;horizontalStack=0;resizeParent=1;resizeParentMax=0;resizeLast=0;collapsible=1;marginBottom=0;whiteSpace=wrap;html=1;" vertex="1" parent="1">
          <mxGeometry x="520" y="660" width="140" height="78" as="geometry" />
        </mxCell>
        <mxCell id="N5ZQxtcFyUModlqFyTWq-10" value="Visit(Circle)" style="text;strokeColor=none;fillColor=none;align=left;verticalAlign=top;spacingLeft=4;spacingRight=4;overflow=hidden;rotatable=0;points=[[0,0.5],[1,0.5]];portConstraint=eastwest;whiteSpace=wrap;html=1;" vertex="1" parent="N5ZQxtcFyUModlqFyTWq-9">
          <mxGeometry y="26" width="140" height="26" as="geometry" />
        </mxCell>
        <mxCell id="N5ZQxtcFyUModlqFyTWq-11" value="Visit(Rectangle)" style="text;strokeColor=none;fillColor=none;align=left;verticalAlign=top;spacingLeft=4;spacingRight=4;overflow=hidden;rotatable=0;points=[[0,0.5],[1,0.5]];portConstraint=eastwest;whiteSpace=wrap;html=1;" vertex="1" parent="N5ZQxtcFyUModlqFyTWq-9">
          <mxGeometry y="52" width="140" height="26" as="geometry" />
        </mxCell>
        <mxCell id="N5ZQxtcFyUModlqFyTWq-13" style="edgeStyle=orthogonalEdgeStyle;rounded=0;orthogonalLoop=1;jettySize=auto;html=1;entryX=0.786;entryY=1.077;entryDx=0;entryDy=0;entryPerimeter=0;" edge="1" parent="1" source="N5ZQxtcFyUModlqFyTWq-6" target="N5ZQxtcFyUModlqFyTWq-4">
          <mxGeometry relative="1" as="geometry">
            <Array as="points">
              <mxPoint x="760" y="580" />
              <mxPoint x="710" y="580" />
            </Array>
          </mxGeometry>
        </mxCell>
        <mxCell id="N5ZQxtcFyUModlqFyTWq-14" value="Shape" style="swimlane;fontStyle=0;childLayout=stackLayout;horizontal=1;startSize=26;fillColor=none;horizontalStack=0;resizeParent=1;resizeParentMax=0;resizeLast=0;collapsible=1;marginBottom=0;whiteSpace=wrap;html=1;" vertex="1" parent="1">
          <mxGeometry x="120" y="380" width="140" height="52" as="geometry" />
        </mxCell>
        <mxCell id="N5ZQxtcFyUModlqFyTWq-15" value="Accept(IVisitor)" style="text;strokeColor=none;fillColor=none;align=left;verticalAlign=top;spacingLeft=4;spacingRight=4;overflow=hidden;rotatable=0;points=[[0,0.5],[1,0.5]];portConstraint=eastwest;whiteSpace=wrap;html=1;" vertex="1" parent="N5ZQxtcFyUModlqFyTWq-14">
          <mxGeometry y="26" width="140" height="26" as="geometry" />
        </mxCell>
        <mxCell id="N5ZQxtcFyUModlqFyTWq-18" value="Rectangle" style="swimlane;fontStyle=0;childLayout=stackLayout;horizontal=1;startSize=26;fillColor=none;horizontalStack=0;resizeParent=1;resizeParentMax=0;resizeLast=0;collapsible=1;marginBottom=0;whiteSpace=wrap;html=1;" vertex="1" parent="1">
          <mxGeometry x="160" y="498" width="140" height="78" as="geometry" />
        </mxCell>
        <mxCell id="N5ZQxtcFyUModlqFyTWq-19" value="Accept(IVisitor)" style="text;strokeColor=none;fillColor=none;align=left;verticalAlign=top;spacingLeft=4;spacingRight=4;overflow=hidden;rotatable=0;points=[[0,0.5],[1,0.5]];portConstraint=eastwest;whiteSpace=wrap;html=1;" vertex="1" parent="N5ZQxtcFyUModlqFyTWq-18">
          <mxGeometry y="26" width="140" height="26" as="geometry" />
        </mxCell>
        <mxCell id="N5ZQxtcFyUModlqFyTWq-25" value="Visit(this)" style="text;strokeColor=none;fillColor=none;align=left;verticalAlign=top;spacingLeft=4;spacingRight=4;overflow=hidden;rotatable=0;points=[[0,0.5],[1,0.5]];portConstraint=eastwest;whiteSpace=wrap;html=1;" vertex="1" parent="N5ZQxtcFyUModlqFyTWq-18">
          <mxGeometry y="52" width="140" height="26" as="geometry" />
        </mxCell>
        <mxCell id="N5ZQxtcFyUModlqFyTWq-20" value="Circle" style="swimlane;fontStyle=0;childLayout=stackLayout;horizontal=1;startSize=26;fillColor=none;horizontalStack=0;resizeParent=1;resizeParentMax=0;resizeLast=0;collapsible=1;marginBottom=0;whiteSpace=wrap;html=1;" vertex="1" parent="1">
          <mxGeometry x="-50" y="498" width="140" height="78" as="geometry" />
        </mxCell>
        <mxCell id="N5ZQxtcFyUModlqFyTWq-21" value="Accept(IVisitor)" style="text;strokeColor=none;fillColor=none;align=left;verticalAlign=top;spacingLeft=4;spacingRight=4;overflow=hidden;rotatable=0;points=[[0,0.5],[1,0.5]];portConstraint=eastwest;whiteSpace=wrap;html=1;" vertex="1" parent="N5ZQxtcFyUModlqFyTWq-20">
          <mxGeometry y="26" width="140" height="26" as="geometry" />
        </mxCell>
        <mxCell id="N5ZQxtcFyUModlqFyTWq-24" value="Visit(this)" style="text;strokeColor=none;fillColor=none;align=left;verticalAlign=top;spacingLeft=4;spacingRight=4;overflow=hidden;rotatable=0;points=[[0,0.5],[1,0.5]];portConstraint=eastwest;whiteSpace=wrap;html=1;" vertex="1" parent="N5ZQxtcFyUModlqFyTWq-20">
          <mxGeometry y="52" width="140" height="26" as="geometry" />
        </mxCell>
        <mxCell id="N5ZQxtcFyUModlqFyTWq-22" style="edgeStyle=orthogonalEdgeStyle;rounded=0;orthogonalLoop=1;jettySize=auto;html=1;entryX=0.221;entryY=1;entryDx=0;entryDy=0;entryPerimeter=0;" edge="1" parent="1" source="N5ZQxtcFyUModlqFyTWq-20" target="N5ZQxtcFyUModlqFyTWq-15">
          <mxGeometry relative="1" as="geometry" />
        </mxCell>
        <mxCell id="N5ZQxtcFyUModlqFyTWq-23" style="edgeStyle=orthogonalEdgeStyle;rounded=0;orthogonalLoop=1;jettySize=auto;html=1;entryX=0.543;entryY=1.038;entryDx=0;entryDy=0;entryPerimeter=0;" edge="1" parent="1" source="N5ZQxtcFyUModlqFyTWq-18" target="N5ZQxtcFyUModlqFyTWq-15">
          <mxGeometry relative="1" as="geometry" />
        </mxCell>
        <mxCell id="N5ZQxtcFyUModlqFyTWq-28" value="" style="endArrow=diamondThin;endFill=1;endSize=24;html=1;rounded=0;entryX=0;entryY=0.5;entryDx=0;entryDy=0;exitX=0.807;exitY=-0.051;exitDx=0;exitDy=0;exitPerimeter=0;" edge="1" parent="1" source="N5ZQxtcFyUModlqFyTWq-18" target="N5ZQxtcFyUModlqFyTWq-3">
          <mxGeometry width="160" relative="1" as="geometry">
            <mxPoint x="300" y="550" as="sourcePoint" />
            <mxPoint x="460" y="550" as="targetPoint" />
            <Array as="points">
              <mxPoint x="300" y="480" />
              <mxPoint x="300" y="460" />
            </Array>
          </mxGeometry>
        </mxCell>
        <mxCell id="N5ZQxtcFyUModlqFyTWq-29" value="" style="endArrow=diamondThin;endFill=1;endSize=24;html=1;rounded=0;exitX=0.514;exitY=1.077;exitDx=0;exitDy=0;exitPerimeter=0;entryX=0;entryY=0.5;entryDx=0;entryDy=0;" edge="1" parent="1" target="N5ZQxtcFyUModlqFyTWq-4">
          <mxGeometry width="160" relative="1" as="geometry">
            <mxPoint x="21.960000000000036" y="576.002" as="sourcePoint" />
            <mxPoint x="-20" y="868" as="targetPoint" />
            <Array as="points">
              <mxPoint x="20" y="660" />
              <mxPoint x="310" y="670" />
            </Array>
          </mxGeometry>
        </mxCell>
        <mxCell id="N5ZQxtcFyUModlqFyTWq-32" style="edgeStyle=orthogonalEdgeStyle;rounded=0;orthogonalLoop=1;jettySize=auto;html=1;entryX=1;entryY=0.5;entryDx=0;entryDy=0;" edge="1" parent="1" source="N5ZQxtcFyUModlqFyTWq-30" target="N5ZQxtcFyUModlqFyTWq-3">
          <mxGeometry relative="1" as="geometry" />
        </mxCell>
        <mxCell id="N5ZQxtcFyUModlqFyTWq-30" value="Client" style="html=1;whiteSpace=wrap;" vertex="1" parent="1">
          <mxGeometry x="880" y="420" width="110" height="50" as="geometry" />
        </mxCell>
      </root>
    </mxGraphModel>
  </diagram>
</mxfile>
